<svg xmlns="http://www.w3.org/2000/svg" xmlns:xlink="http://www.w3.org/1999/xlink" viewBox="0 0 196 122.1"><defs><style>.cls-1{isolation:isolate;}.cls-2{fill:url(#linear-gradient);}.cls-3{mix-blend-mode:screen;fill:url(#linear-gradient-2);}.cls-4{fill:url(#linear-gradient-3);}.cls-5{mix-blend-mode:multiply;fill:url(#linear-gradient-4);}.cls-6,.cls-7{fill:#d6d6d6;}.cls-7{fill-rule:evenodd;}</style><linearGradient id="linear-gradient" x1="61.65" y1="153.71" x2="136.24" y2="-36.45" gradientUnits="userSpaceOnUse"><stop offset="0" stop-color="#070707"/><stop offset="1" stop-color="#404040"/></linearGradient><linearGradient id="linear-gradient-2" x1="194.52" y1="58.55" x2="-100.09" y2="68.37" gradientUnits="userSpaceOnUse"><stop offset="0"/><stop offset="0.26" stop-color="#020202"/><stop offset="0.38" stop-color="#0a0a0a"/><stop offset="0.47" stop-color="#171717"/><stop offset="0.55" stop-color="#292929"/><stop offset="0.62" stop-color="#414141"/><stop offset="0.69" stop-color="#5e5e5e"/><stop offset="0.74" stop-color="#818181"/><stop offset="0.8" stop-color="#aaa"/><stop offset="0.85" stop-color="#d7d7d7"/><stop offset="0.89" stop-color="#fff"/></linearGradient><linearGradient id="linear-gradient-3" x1="31.78" y1="26.5" x2="31.78" y2="78.63" gradientUnits="userSpaceOnUse"><stop offset="0" stop-color="#ffca3f"/><stop offset="0.1" stop-color="#ca7c22"/><stop offset="0.19" stop-color="#fddb7a"/><stop offset="0.42" stop-color="#ffad45"/><stop offset="0.55" stop-color="#a95f0d"/><stop offset="0.66" stop-color="#ffad45"/><stop offset="0.79" stop-color="#ffff9b"/><stop offset="0.87" stop-color="#ffed7c"/><stop offset="1" stop-color="#ffca3f"/></linearGradient><linearGradient id="linear-gradient-4" x1="31.78" y1="13.87" x2="31.78" y2="79.13" xlink:href="#linear-gradient-3"/></defs><title>資產 2</title><g class="cls-1"><g id="圖層_2" data-name="圖層 2"><g id="Layer_1" data-name="Layer 1"><rect class="cls-2" width="196" height="122.1" rx="7.5"/><path class="cls-3" d="M188.5,0H50.68l72.55,122.1H188.5a7.5,7.5,0,0,0,7.5-7.5V7.5A7.5,7.5,0,0,0,188.5,0Z"/><rect class="cls-4" x="18.74" y="32.07" width="26.07" height="20.66" rx="3.72"/><path class="cls-5" d="M44.81,38.58V38.1H40v-6h-.48v6H35.69a4.28,4.28,0,0,0-3.67-3v-3h-.48v3a4.27,4.27,0,0,0-4,3H24v-6h-.48v6H18.74v.48h4.81v6.76H18.74v.47h4.81v6.91H24V45.81h3.41a4.29,4.29,0,0,0,4.1,3.33v3.58H32V49.11a4.29,4.29,0,0,0,3.77-3.3h3.77v6.91H40V45.81h4.77v-.47H42V38.58ZM27.37,45.34H24V38.58H27.4a5.16,5.16,0,0,0-.08.8,4.27,4.27,0,0,0,1,2.74,4.25,4.25,0,0,0-1,2.74C27.32,45,27.36,45.18,27.37,45.34Zm4.25,3.33a3.8,3.8,0,0,1-2.8-6.39l.15-.16L28.82,42a3.82,3.82,0,1,1,5.59,0l-.15.16.15.16a3.8,3.8,0,0,1-2.79,6.39Zm9.87-3.33H35.86c0-.16,0-.32,0-.48a4.25,4.25,0,0,0-1-2.74,4.27,4.27,0,0,0,1-2.74,5.16,5.16,0,0,0-.08-.8h5.66Z"/><path class="cls-6" d="M22.59,21.52a2.56,2.56,0,0,1-1.09.26A2.51,2.51,0,0,1,19.63,21c-.52-.56-.79-1.73-.79-3.5,0-1.92.27-3.21.79-3.87a2.37,2.37,0,0,1,1.92-1,5.16,5.16,0,0,1,1,.14v1.09a2.31,2.31,0,0,0-.77-.16,1.44,1.44,0,0,0-1.2.72,5.38,5.38,0,0,0-.5,2.81,14,14,0,0,0,.11,2,2,2,0,0,0,.5,1.12,1.29,1.29,0,0,0,1,.42,2.3,2.3,0,0,0,.87-.22Z"/><path class="cls-6" d="M26.63,16.45a1.8,1.8,0,0,0-1.13.3c-.23.19-.34.6-.34,1.25v3.68H24V15.54h1.16v.91h0a1.52,1.52,0,0,1,1.36-1h.08Z"/><path class="cls-6" d="M31.31,18.81H28.73a6.35,6.35,0,0,0,.13,1.51.62.62,0,0,0,.65.51.54.54,0,0,0,.54-.3,2.31,2.31,0,0,0,.14-.93h1q0,2.16-1.83,2.16c-1.27,0-1.9-1-1.9-3,0-2.19.66-3.29,2-3.29a1.7,1.7,0,0,1,1.29.57,3.57,3.57,0,0,1,.54,2.35Zm-1.16-.89A4.08,4.08,0,0,0,30,16.61a.53.53,0,0,0-.53-.4.58.58,0,0,0-.6.42,4.5,4.5,0,0,0-.14,1.29Z"/><path class="cls-6" d="M35.42,12.42h1.14v9.26H35.43v-.83h0a1.3,1.3,0,0,1-1.18.91,1.28,1.28,0,0,1-.82-.3,1.59,1.59,0,0,1-.53-.84,8.36,8.36,0,0,1-.14-1.81,12.3,12.3,0,0,1,.12-2.06,1.86,1.86,0,0,1,.49-1,1.27,1.27,0,0,1,2,.48h0Zm0,6.09a6.57,6.57,0,0,0-.14-1.61.58.58,0,0,0-.58-.48.62.62,0,0,0-.6.5A5.93,5.93,0,0,0,34,18.57a6.78,6.78,0,0,0,.15,1.71.59.59,0,0,0,.58.5c.28,0,.47-.17.59-.53A6.94,6.94,0,0,0,35.43,18.51Z"/><path class="cls-6" d="M38,13.67a.65.65,0,0,1,.19-.45.61.61,0,0,1,.45-.18.6.6,0,0,1,.44.18.61.61,0,0,1,.19.45.65.65,0,0,1-.63.63.58.58,0,0,1-.45-.19A.61.61,0,0,1,38,13.67Zm.06,1.87h1.14v6.14H38.09Z"/><path class="cls-6" d="M42.94,16.45H42.2v5.23H41.05V16.45h-.74v-.91h.74V13.87H42.2v1.67h.74Z"/><path class="cls-6" d="M50.49,21.52a2.56,2.56,0,0,1-1.09.26A2.48,2.48,0,0,1,47.54,21c-.53-.56-.8-1.73-.8-3.5,0-1.92.27-3.21.8-3.87a2.34,2.34,0,0,1,1.91-1,5.16,5.16,0,0,1,1,.14v1.09a2.31,2.31,0,0,0-.77-.16,1.44,1.44,0,0,0-1.2.72,5.38,5.38,0,0,0-.5,2.81,14,14,0,0,0,.11,2,2,2,0,0,0,.5,1.12,1.29,1.29,0,0,0,1,.42,2.26,2.26,0,0,0,.87-.22Z"/><path class="cls-6" d="M55.64,21.68H54.49v-.75h0a1.31,1.31,0,0,1-1.14.83,1.33,1.33,0,0,1-1-.56,4.36,4.36,0,0,1-.46-2.5,6.5,6.5,0,0,1,.35-2.49,1.18,1.18,0,0,1,1.17-.76,1,1,0,0,1,.63.18,2.13,2.13,0,0,1,.5.58h0v-.67h1.15Zm-1.88-.92c.3,0,.49-.18.59-.53a7.51,7.51,0,0,0,.14-1.79,6.22,6.22,0,0,0-.13-1.56.55.55,0,0,0-.55-.46.6.6,0,0,0-.59.43,4.7,4.7,0,0,0-.17,1.52,9.41,9.41,0,0,0,.13,1.84C53.27,20.58,53.46,20.76,53.76,20.76Z"/><path class="cls-6" d="M59.78,16.45a1.8,1.8,0,0,0-1.13.3c-.23.19-.34.6-.34,1.25v3.68H57.15V15.54h1.16v.91h0a1.52,1.52,0,0,1,1.36-1h.08Z"/><path class="cls-6" d="M63.32,12.42h1.14v9.26H63.33v-.83h0a1.24,1.24,0,0,1-2,.61,1.52,1.52,0,0,1-.52-.84,7.62,7.62,0,0,1-.15-1.81,12.3,12.3,0,0,1,.12-2.06,1.86,1.86,0,0,1,.49-1,1.27,1.27,0,0,1,2,.48h0Zm0,6.09a6.57,6.57,0,0,0-.14-1.61.58.58,0,0,0-.58-.48.62.62,0,0,0-.6.5,5.93,5.93,0,0,0-.16,1.65A6.78,6.78,0,0,0,62,20.28a.59.59,0,0,0,.58.5c.28,0,.48-.17.59-.53A6.49,6.49,0,0,0,63.33,18.51Z"/><path class="cls-6" d="M128.37,86.41h0a.27.27,0,0,1,0-.1l.72-2.33h.34l-.88,2.67h-.42L127.29,84h.33l.73,2.33Z"/><path class="cls-6" d="M129.72,86.65l.91-2.67h.45l.93,2.67h-.32l-.2-.56h-1.26l-.19.56Zm1.14-2.44h0a.26.26,0,0,1,0,.11l-.51,1.53h1.1l-.52-1.53A.26.26,0,0,1,130.86,84.21Z"/><path class="cls-6" d="M134.23,86.38v.27h-1.65V84h.32v2.4Z"/><path class="cls-6" d="M134.58,84h.32v2.67h-.32Z"/><path class="cls-6" d="M135.66,86.65V84h1.41a.25.25,0,0,1,.18.08l.37.3a.21.21,0,0,1,.09.16v1.59a.24.24,0,0,1-.09.16l-.37.3a.25.25,0,0,1-.18.08Zm1.73-.65V84.63a.2.2,0,0,0-.09-.15l-.18-.15a.24.24,0,0,0-.18-.08h-1v2.13h1a.29.29,0,0,0,.18-.08l.18-.15A.2.2,0,0,0,137.39,86Z"/><path class="cls-6" d="M127.88,88.55h2v.26H129v2.4h-.32v-2.4h-.84Z"/><path class="cls-6" d="M132,88.55h.32v2.66H132V90h-1.38v1.23h-.32V88.55h.32v1.18H132Z"/><path class="cls-6" d="M133,88.55h1.41a.27.27,0,0,1,.18.07l.09.08a.23.23,0,0,1,.09.19v.89a.27.27,0,0,1-.09.2l-.09.08a.34.34,0,0,1-.18.07h-.21l.39.61.06.08a.21.21,0,0,0,.08.05l0,0,.08.06a1,1,0,0,1,0,.11v.15h-.19a.15.15,0,0,1-.08,0l-.08-.05a.47.47,0,0,1-.14-.14l-.5-.81h-.55v1.06H133Zm.32.26v1.07h1l.05,0,0,0v-.9l0-.05-.05,0h-1Z"/><path class="cls-6" d="M137.3,88.55h.32v2.32a.23.23,0,0,1-.09.19l-.1.08a.27.27,0,0,1-.18.07H136a.27.27,0,0,1-.18-.07l-.1-.08a.23.23,0,0,1-.09-.19V88.55h.32v2.24s0,.06,0,.07,0,0,0,0l0,0h1.19l.05,0s0,0,0,0a.35.35,0,0,0,0-.07Z"/><polygon class="cls-7" points="139.52 86 139.52 89.24 141.96 87.62 139.52 86"/></g></g></g></svg>