<?xml version="1.0" encoding="utf-8"?>
<!-- Generator: Adobe Illustrator 24.0.3, SVG Export Plug-In . SVG Version: 6.00 Build 0)  -->
<svg version="1.1" id="圖層_1" xmlns="http://www.w3.org/2000/svg" xmlns:xlink="http://www.w3.org/1999/xlink" x="0px" y="0px"
	 viewBox="0 0 453 210" style="enable-background:new 0 0 453 210;" xml:space="preserve">
<style type="text/css">
	.st0{stroke:#FFFFFF;stroke-width:2;stroke-miterlimit:10;}
	.st1{fill:#FFFFFF;}
	.st2{fill-rule:evenodd;clip-rule:evenodd;fill:#EDAE0F;}
	.st3{fill:#EDAE0F;}
	.st4{fill-rule:evenodd;clip-rule:evenodd;}
	.st5{fill-rule:evenodd;clip-rule:evenodd;fill:#FFFFFF;}
	.st6{stroke:#FFFFFF;stroke-width:3;stroke-miterlimit:10;}
	.st7{fill-rule:evenodd;clip-rule:evenodd;fill:#EABB39;}
	.st8{fill-rule:evenodd;clip-rule:evenodd;fill:#BC6413;}
	.st9{fill-rule:evenodd;clip-rule:evenodd;fill:#9B5013;}
	.st10{fill-rule:evenodd;clip-rule:evenodd;fill:#93846F;}
	.st11{fill-rule:evenodd;clip-rule:evenodd;fill:#7C613E;}
	.st12{fill-rule:evenodd;clip-rule:evenodd;fill:#67290F;}
	.st13{clip-path:url(#SVGID_2_);fill:#8FC5B8;}
	.st14{clip-path:url(#SVGID_4_);}
	.st15{fill:#7EADA2;}
	.st16{clip-path:url(#SVGID_8_);}
	.st17{fill:#333333;}
	.st18{fill:#534741;}
	.st19{fill:#605550;}
	.st20{clip-path:url(#SVGID_12_);}
	.st21{fill:#3F3631;}
	.st22{fill:#F7D77F;}
	.st23{fill:#272727;}
	.st24{fill:#8CAD81;}
	.st25{clip-path:url(#SVGID_16_);}
	.st26{fill:#49413D;}
	.st27{fill:#302925;}
	.st28{fill:#BCA461;}
	.st29{stroke:#EDAE0F;stroke-width:0.995;stroke-miterlimit:10;}
	.st30{fill:#D31111;}
	.st31{fill:none;}
	.st32{fill:#FFC215;}
	.st33{fill:none;stroke:#FFFFFF;stroke-width:3;stroke-miterlimit:10;}
</style>
<path class="st0" d="M440,46c0-15.4-12.6-28-28-28c-10.6,0-19.8,5.9-24.6,14.6c-13.6,0-30.1,0-30.1,0c-0.6,0-1.2,0.1-1.7,0.2
	c-0.6-0.1-1.1-0.2-1.7-0.2c0,0-29,0-29,0c-2.2,0-4.4,0.8-6.1,2.1c-1.7-1.3-3.9-2.1-6.1-2.1c0,0-5,0-11.6,0c-2.3-1.2-5.2-2.2-9-2.6
	c-0.3,0-0.6-0.1-0.9-0.1c-0.2,0-0.4,0-0.6,0c-1.8-0.7-3.8-1-5.8-1c-2,0-3.9,0.3-5.8,1c-0.7-0.1-1.3-0.2-1.9-0.3
	c-1.6-0.3-2.9-0.5-3.6-0.9c-2.8-1.9-5.8-2.1-7.9-2.2c-0.4,0-0.9-0.1-1.1-0.1l-0.4-0.1c-1.5-0.2-3-0.5-4.4-0.8
	c-1.3-0.3-2.7-0.5-4-0.5c-6.1,0-11.3,3.2-15.3,9.5c-0.1,0.1-0.2,0.3-0.3,0.4c-1.7-1.4-3.9-2.3-6.3-2.3l-29,0c-2.3,0-4.4,0.8-6.1,2.1
	c-1.8-1.4-4-2.2-6.3-2.2c0,0-22.7,0.1-34,0.1c-2.8,0-5.5,1.2-7.4,3.3c-1.1,1.2-2.1,2.4-3.2,3.5c-1-1.1-2-2.3-2.9-3.4
	c-1.9-2.2-4.7-3.5-7.6-3.5c0,0,0,0,0,0c-11.3,0-22.6,0.1-34,0.1c-3,0-5.8,1.4-7.7,3.7c-1,1.2-2,2.5-2.9,3.7
	c-0.8-1.1-1.6-2.1-2.4-3.2c-1.9-2.5-4.9-4-8-4c0,0-34,0-34,0c-3.3,0-6.4,1.6-8.3,4.4c-3,4.5-6,9-8.9,13.5c-1,1.6-1.6,3.5-1.6,5.4
	v95.7c0,1.9,0.5,3.7,1.5,5.3c0.2,0.3,0.3,0.6,0.5,0.9c0.2,0.3,0.3,0.6,0.5,0.9c0.2,0.3,0.3,0.6,0.5,0.9c0.2,0.3,0.3,0.6,0.5,0.9
	c0.2,0.3,0.3,0.6,0.5,0.9c0.2,0.3,0.3,0.6,0.5,0.9c0.2,0.3,0.3,0.6,0.5,0.9c0.2,0.3,0.3,0.6,0.5,0.9c0.2,0.3,0.3,0.6,0.5,0.9
	c0.2,0.3,0.3,0.6,0.5,0.9c0.2,0.3,0.3,0.6,0.5,0.9c0.2,0.3,0.3,0.6,0.5,0.9c0.2,0.3,0.3,0.6,0.5,0.9c0.2,0.3,0.3,0.6,0.5,0.9
	c0.2,0.3,0.3,0.6,0.5,0.9c0.2,0.3,0.3,0.6,0.5,0.9c0.2,0.3,0.3,0.6,0.5,0.9c0.2,0.3,0.3,0.6,0.5,0.9c0.2,0.3,0.3,0.6,0.5,0.9
	c0.2,0.3,0.3,0.6,0.5,0.9c0.3,0.7,0.7,1.3,1.2,1.9c2.7,3.2,5.4,6.4,8.2,9.5c1.8,2.1,4.4,3.2,7.1,3.2c1.2,0,2.3-0.2,3.5-0.7
	c10.1-3.9,20.4-7.6,30.7-10.8c2.2-0.7,4.1-2.1,5.3-4.1c1.2-1.9,2.3-3.8,3.5-5.6c0.5,0.5,1,1,1.5,1.5c1.8,1.8,4.2,2.8,6.7,2.8
	c0.8,0,1.6-0.1,2.4-0.3c10.4-2.7,20.9-5.1,31.5-7.1c2.3-0.4,4.4-1.7,5.8-3.6c1.2-1.6,2.4-3.1,3.6-4.7c0.8,0.8,1.6,1.6,2.4,2.4
	c1.8,1.7,4.1,2.7,6.6,2.7c0.4,0,0.9,0,1.3-0.1c10.6-1.5,21.3-2.7,31.9-3.4c2.1-0.1,4.1-1,5.6-2.4c1.6,1.2,3.6,1.8,5.6,1.8
	c0.1,0,0.3,0,0.4,0c6.8-0.3,13.7-0.5,20.6-0.5c10.9,0,21.9,0.4,32.8,1.2c0.2,0,0.5,0,0.7,0c0.4,0,0.7,0,1.1-0.1
	c0.6,0.2,1.1,0.3,1.7,0.3c14.9,1.2,29.9,3.2,44.6,5.8c0.6,0.1,1.1,0.2,1.7,0.2c1.5,0,3.1-0.4,4.4-1.1c1.3,1.6,3.2,2.7,5.3,3.2
	c9,1.9,18,4,26.8,6.4c0.5,0.1,1.1,0.2,1.6,0.3c0.5,0.2,1,0.5,1.6,0.6c14.6,4.1,29.1,9,43.2,14.5c1.1,0.4,2.3,0.7,3.5,0.7
	c2.7,0,5.3-1.1,7.1-3.2c2.7-3.1,5.5-6.3,8.2-9.5c0.5-0.6,0.9-1.2,1.2-1.9c0.2-0.3,0.4-0.6,0.5-0.9c0.2-0.3,0.4-0.6,0.5-0.9
	c0.2-0.3,0.4-0.6,0.5-0.9c0.2-0.3,0.4-0.6,0.5-0.9c0.2-0.3,0.4-0.6,0.5-0.9c0.2-0.3,0.4-0.6,0.5-0.9c0.2-0.3,0.4-0.6,0.5-0.9
	c0.2-0.3,0.4-0.6,0.5-0.9c0.2-0.3,0.4-0.6,0.5-0.9c0.2-0.3,0.4-0.6,0.5-0.9c0.2-0.3,0.4-0.6,0.5-0.9c0.2-0.3,0.4-0.6,0.5-0.9
	c0.2-0.3,0.4-0.6,0.5-0.9c0.2-0.3,0.4-0.6,0.5-0.9c0.2-0.3,0.4-0.6,0.5-0.9c0.2-0.3,0.4-0.6,0.5-0.9c0.2-0.3,0.4-0.6,0.5-0.9
	c0.2-0.3,0.4-0.6,0.5-0.9c0.2-0.3,0.4-0.6,0.5-0.9c0.2-0.3,0.4-0.6,0.5-0.9c1-1.6,1.5-3.4,1.5-5.3V71.4C433.3,67,440,57.3,440,46z"
	/>
<g>
	<path class="st1" d="M90.4,113.8c-0.1,7.3-0.2,14.7-0.3,22c-3,4.6-6,9.3-8.9,14.2c-11.1,3.5-22.2,7.4-33.1,11.6
		c-2.8-3.2-5.6-6.5-8.5-9.9c0-31.9,0-63.8,0-95.7c2.9-4.6,5.8-9,8.8-13.3c11.3,0,22.6,0,34,0c2.9,3.9,5.8,7.8,8.8,11.5
		c-0.1,7.3-0.2,14.7-0.3,22c-6.4,0.6-12.8,1.2-19.2,1.9c0-2.6,0-5.3,0.1-7.9c-1-1.2-2-2.5-3-3.7c-2.4,0.2-4.8,0.3-7.1,0.5
		c-1,1.4-2,2.9-3,4.3c-0.1,19.3-0.2,38.5-0.3,57.8c1,1.1,1.9,2.2,2.9,3.3c2.3-0.7,4.7-1.3,7-1.9c1-1.6,2-3.2,3-4.7
		c0-2.6,0-5.3,0.1-7.9C77.6,116.4,84,115,90.4,113.8z"/>
	<path class="st1" d="M137.4,42.4c2.9,3.4,5.8,6.8,8.8,10.1c-0.3,24-0.7,47.9-1,71.9c-3,3.8-6.1,7.7-9.1,11.7
		c-11.4,2.1-22.7,4.7-34,7.7c-2.9-2.9-5.7-5.9-8.6-8.9c0.3-27,0.7-54.1,1-81.1c3-3.8,5.9-7.6,8.9-11.3
		C114.8,42.5,126.1,42.4,137.4,42.4z M126.7,65.7c-1-0.9-2-1.8-3-2.7c-2.4,0.1-4.8,0.2-7.2,0.3c-1,1-2,2.1-3,3.1
		c-0.2,16.9-0.5,33.9-0.7,50.8c1,0.8,2,1.6,3,2.4c2.4-0.4,4.8-0.9,7.2-1.3c1-1.1,2-2.3,3.1-3.4C126.2,98.5,126.5,82.1,126.7,65.7z"
		/>
	<path class="st1" d="M192.5,42.4c2.9,3.2,5.9,6.3,8.8,9.5c-0.1,22.3-0.3,44.7-0.4,67c-3,3.3-6.1,6.6-9.1,10
		c-11.5,0.8-23,2-34.5,3.7c-2.9-2.8-5.8-5.7-8.7-8.6c0.3-23.8,0.7-47.7,1-71.5c3-3.4,5.9-6.7,8.9-9.9
		C169.9,42.5,181.2,42.4,192.5,42.4z M181.9,63.6c-1-0.9-2-1.7-3-2.6c-2.4,0.1-4.8,0.1-7.2,0.2c-1,0.9-2,1.8-3,2.7
		c-0.2,15.2-0.4,30.4-0.5,45.7c1,0.8,2,1.6,3,2.4c2.4-0.2,4.8-0.4,7.2-0.6c1-1,2-1.9,3.1-2.9C181.7,93.6,181.8,78.6,181.9,63.6z"/>
	<path class="st1" d="M233.9,60.7c-1.6,0-3.2,0-4.9,0c0,16.3,0,32.6,0,49c4.4,0,8.8,0.1,13.3,0.2c0-3.1,0-6.1,0-9.2
		c6.5,0.1,13,0.4,19.5,0.7c0.1,9.2,0.1,18.5,0.2,27.7c-19.2-1.4-38.4-1.6-57.6-0.8c0-6.1,0.1-12.2,0.1-18.3c1.6-0.1,3.3-0.1,4.9-0.2
		c0.1-16.4,0.1-32.8,0.2-49.1c-1.6,0-3.2,0-4.9,0c0-6.1,0.1-12.2,0.1-18.3c9.7,0,19.3,0,29,0C233.9,48.6,233.9,54.6,233.9,60.7z"/>
	<path class="st1" d="M322,84.8c-1.4,1.6-2.9,3.2-4.3,4.7c1.5,1.8,3,3.7,4.5,5.6c0.2,10.7,0.3,21.3,0.5,32c-2.9,2.9-5.8,5.8-8.7,8.6
		c-16-2.9-32.1-5-48.2-6.3c-0.1-6.2-0.1-12.3-0.2-18.5c1.6,0.1,3.3,0.2,4.9,0.3c-0.2-16.7-0.5-62.5-0.6-68.7c15.9,0,26.8,0,42.7,0
		c3,3.4,6,6.8,8.9,10.3C321.7,63.5,321.9,74.1,322,84.8z M299.5,61.7c-3.4-0.1-6.7-0.2-10.1-0.3c0.1,5.4,0.1,10.8,0.2,16.2
		c3.4,0.2,6.7,0.4,10.1,0.6c1-1,1.9-2.1,2.9-3.1c0-3.3-0.1-6.6-0.1-9.9c-1-1.1-2-2.2-3.1-3.4C299.4,61.8,299.5,61.8,299.5,61.7z
		 M303.1,110.9c0-3.3-0.1-6.6-0.1-9.9c-1-1.2-2-2.4-2.9-3.5c-3.4-0.3-6.7-0.6-10.1-0.9c0.1,5.4,0.1,10.8,0.2,16.2
		c3.4,0.4,6.8,0.7,10.1,1.1C301.2,112.9,302.1,111.9,303.1,110.9z"/>
	<path class="st1" d="M349.3,64.1c0.3,19.4,0.5,38.7,0.8,58.1c1.6,0.3,3.2,0.7,4.8,1c0.1,7.3,0.2,14.5,0.3,21.8
		c-9.6-2.6-19.2-4.9-28.9-7c-0.1-6.8-0.2-13.6-0.3-20.3c1.6,0.3,3.2,0.5,4.9,0.8c-0.3-18.5-0.5-37-0.8-55.4
		c-1.6-0.1-3.2-0.1-4.9-0.2c-0.1-6.8-0.2-13.6-0.3-20.3c9.7,0,19.3,0,29,0c0.1,7.3,0.2,14.5,0.3,21.8
		C352.6,64.3,350.9,64.2,349.3,64.1z"/>
	<path class="st1" d="M413.7,56c0,31.9,0,63.8,0,95.7c-2.8,3.4-5.6,6.7-8.5,9.9c-15.3-6-30.9-11.2-46.6-15.6
		c-0.1-7.3-0.2-14.7-0.3-22c1.6,0.4,3.2,0.7,4.8,1.1c-0.2-20.1-0.5-40.1-0.7-60.2c-1.6-0.1-3.2-0.2-4.8-0.3
		c-0.1-7.3-0.2-14.7-0.3-22c15.9,0,31.7,0,47.6,0C407.9,46.9,410.8,51.4,413.7,56z M394.6,71.2c-1-1.5-2-2.9-3-4.3
		c-3.3-0.3-6.7-0.5-10-0.7c0.2,21.2,0.4,42.4,0.6,63.6c3.3,0.9,6.6,1.8,9.9,2.7c1-1.1,1.9-2.2,2.9-3.3
		C394.8,109.8,394.7,90.5,394.6,71.2z"/>
</g>
<g>
	<path d="M306.6,45.7c-0.9-5.3-3.4-11.5-14.8-12.8c-0.2,0-0.4,0-0.6,0c-0.3,0-0.6,0-1,0.1c-1.6-0.7-3.4-1.1-5.4-1.1
		c-1.8,0-3.6,0.3-5.3,1c-0.1,0-0.3,0.1-0.4,0.1c-0.8-0.2-1.7-0.3-2.5-0.5c-2-0.3-3.6-0.6-4.8-1.4c-2.2-1.5-4.6-1.6-6.3-1.7
		c-0.5,0-1.1-0.1-1.4-0.1l-0.4-0.1c-1.6-0.3-3.1-0.5-4.5-0.8c-1.1-0.3-2.3-0.4-3.3-0.4c-7.6,0-11.5,6.1-12.8,8.1
		c-4.8,7.5-4.9,17.6-0.4,24c4.1,5.8,9,7,12.4,7c0,0,0,0,0,0c1.6,0,3.3-0.3,5-0.8c1.1,0.5,2.2,0.8,3.3,1c0,0.3,0,0.5-0.1,0.7
		c0,5.4-0.6,17.6-1.1,29.4c-0.5,12-1,23.4-1.1,28.8c0,6.1,7.2,10,12.4,10.6c1.2,0.1,2.3,0.2,3.5,0.3c1.1,0.1,2.3,0.2,3.5,0.4
		c0.5,0.1,0.9,0.1,1.4,0.1c0,0,0,0,0,0c3,0,7-1,9.6-3.7c1.5-1.6,2.3-3.6,2.2-5.7c-0.2-5.6-1-18-1.8-29.9
		c-0.8-11.7-1.6-23.7-1.8-29.4c1,0,2.1-0.1,3.2-0.3c2.9-0.4,6.1-2.2,8.5-4.8C306.1,58.8,307.8,52.6,306.6,45.7z"/>
	<g>
		<path class="st3" d="M276,52.4c-1.3-0.2-1.6,0.3-2.1,1.4c-0.8,1.9-1.7,3.8-2.9,5.4c-2.3,3-5.8,3.7-8.9,2.3
			c0.7-1.1,1.3-2.2,2.4-3.8c-6.9,5.9-13.3,5.5-17.6-0.6c-3.4-4.7-3.2-12.5,0.5-18.2c2.5-3.9,5.6-6.5,10.6-5.4c1.7,0.4,3.5,0.7,5.2,1
			c1.9,0.3,4.3,0,5.7,1c2.9,1.9,6,2,9.1,2.6c1,0.2,2.3,0.1,3.3-0.3c4.1-1.5,9-0.4,10.5,4c0.2,0.6,0.6,1.2,0.9,1.7
			c0.1-0.1,0.3-0.1,0.4-0.2c-0.6-1.7-1.3-3.4-1.9-5.2c6.6,0.8,9.3,2.9,10.3,8.6c0.9,5-0.2,9.8-3.6,13.6c-1.3,1.5-3.4,2.9-5.3,3.2
			c-2.8,0.4-5.9,0.4-8.4-0.7c-2.9-1.2-5.8-1.6-8.8-1.7c-1.3-0.1-2.7-0.4-4-0.5c0-0.3,0.1-0.5,0.1-0.8c3,0.2,6,0.5,9,0.6
			c0.7,0,1.7,0,2-0.4c1.5-1.8,2.9-3.8,4.7-6.3C282.7,53.1,279.3,52.9,276,52.4z M275.4,45.3c3.3,0.4,6.8,0.8,10.4,1.2
			c0.3-3.4-1-5.4-4.1-6.1c-2.9-0.6-5.8-1-8.9-1.6C273.7,41.2,274.5,43.1,275.4,45.3z M276.2,48.4c3.3,0.5,6.6,0.8,9.9,1.1
			c0.1-0.2,0.3-0.4,0.4-0.6c-0.6-0.5-1.1-1.4-1.7-1.5c-3.2-0.4-6.4-0.7-9.7-1c-0.1,0.2-0.3,0.3-0.4,0.5
			C275.3,47.5,275.7,48.3,276.2,48.4z M257.4,59.8c11.6-1.9,14.6-17.8,6.3-23.6C269.1,45.7,268.6,53.7,257.4,59.8z"/>
		<g>
			<path class="st3" d="M284.9,68.5c-0.1-3.3-16.4-3.8-16.5-0.6c-0.1,10.8-2,47.5-2.1,58.2c0,2.5,4.6,5.1,7.7,5.4
				c1.2,0.1,2.3,0.2,3.5,0.3c1.2,0.1,2.3,0.2,3.5,0.4c3.1,0.3,7.7-1.3,7.6-3.9C288.2,117.2,285.4,79.5,284.9,68.5z M285.4,123.1
				c-0.3,1.8-0.6,3.2-1,4.2c-0.7,1.7-1.4,2.6-2.2,2.6c-0.1,0-0.2,0-0.4-0.1c-0.9-0.3-1.6-1.2-2.1-2.7c2.1-1.6,3.2-8,3.2-19
				c0-4-0.2-9.9-0.6-17.7c-0.4-7.9-0.8-13.9-1.2-18.1c0.2-1.1,0.4-1.9,0.8-2.4c0.2-0.2,0.3-0.3,0.5-0.3c0.2,0,0.4,0.2,0.5,0.5
				c0,0.1,0,0.2,0,0.3c0.3,2.8,0.6,6.9,1.1,12.2c0.4,5.3,0.9,11.1,1.2,17.2c0.4,6.1,0.6,11.7,0.6,16.6
				C285.7,119.1,285.6,121.3,285.4,123.1z"/>
		</g>
	</g>
</g>
<circle cx="412" cy="46" r="25"/>
<circle class="st30" cx="412" cy="46" r="15"/>
</svg>
